# xmcd
#
# Track frame offsets: 
#        150
#        15350
#        30291
#        42657
#        63381
#        79784
#        103053
#        125190
#        140658
#        156197
#        173076
#        186162
#        201943
#        219288
#        241970
#        262014
#
# Disc length: 3702 seconds
#
# Revision: 1
# Processed by: cddbd v1.5.2PL0 Copyright (c) Steve Scherf et al.
# Submitted via: ExactAudioCopy v1.3
#
DISCID=e20e7410
DTITLE=Diana Panton - If The Moon Turns Green
DYEAR=2007
DGENRE=Jazz
TTITLE0=Destination Moon
TTITLE1=I'm Old Fashioned
TTITLE2=It's Like Reaching For The Moon
TTITLE3=If The Moon Turns Green
TTITLE4=Reaching For The Moon
TTITLE5=Quiet Nights Of Quiet Stars
TTITLE6=Moonlight Serenade
TTITLE7=There Ought To Be A Moonlight Savings Time
TTITLE8=A Little Girl, A Little Boy, A Little Moon
TTITLE9=Moon And Sand
TTITLE10=I've Told Ev'ry Little Star
TTITLE11=A Handful Of Stars
TTITLE12=Oh You Crazy Moon
TTITLE13=So Many Stars
TTITLE14=Fly Me To The Moon
TTITLE15=Moon River
EXTD=YEAR: 2007
EXTT0=
EXTT1=
EXTT2=
EXTT3=
EXTT4=
EXTT5=
EXTT6=
EXTT7=
EXTT8=
EXTT9=
EXTT10=
EXTT11=
EXTT12=
EXTT13=
EXTT14=
EXTT15=
PLAYORDER=
